# xmcd CD database file
#
# Track frame offsets:
#	150
#	18507
#	35304
#	49341
#	73776
#	88747
#	108686
#	130201
#	151198
#	167957
#	179859
#	195901
#	218093
#
# Disc length: 3203 seconds
#
# Revision: 0
# Processed by: cddbd v1.5.2PL0 Copyright (c) Steve Scherf et al.
# Submitted via: CDex 1.51
#
DISCID=ba0c810d
DTITLE=Andy Baylor - blues is poetry
DYEAR=2008
DGENRE=Blues
TTITLE0=Everyday Is A Song
TTITLE1=Caress Me Baby
TTITLE2=Fatsound Stomp
TTITLE3=Put Love Before Money
TTITLE4=Just Do It
TTITLE5=Nealin' Down
TTITLE6=Blues Is Poetry
TTITLE7=Rosey's Tune
TTITLE8=Love Affair Baby
TTITLE9=For You My Love
TTITLE10=Boogie In The Basement
TTITLE11=You Take A Piece Of Wire
TTITLE12=West Melbourne Sunset
EXTD=YEAR: 2008
EXTT0=
EXTT1=
EXTT2=
EXTT3=
EXTT4=
EXTT5=
EXTT6=
EXTT7=
EXTT8=
EXTT9=
EXTT10=
EXTT11=
EXTT12=
PLAYORDER=
